<svg width="190" height="38" viewBox="0 0 190 38" fill="none" xmlns="http://www.w3.org/2000/svg">
  <path
    d="M0.201797 34.076H67.953V37.748H0.201797V34.076ZM84.9298 34.076H106.422V37.748H84.9298V34.076ZM129.477 34.076H188.787V37.748H129.477V34.076Z"
    fill="#BA5C12" />
  <path
    d="M176.511 29.252L170.823 13.916C170.583 13.268 170.331 12.8 170.067 12.512C169.803 12.2 169.359 12.044 168.735 12.044C168.735 11.66 168.795 11.276 168.915 10.892C169.035 10.484 169.227 10.148 169.491 9.884H177.699C177.963 10.148 178.167 10.484 178.311 10.892C178.455 11.276 178.527 11.66 178.527 12.044C178.047 12.044 177.639 12.176 177.303 12.44C176.991 12.704 176.835 13.112 176.835 13.664C176.835 13.76 176.847 13.88 176.871 14.024C176.919 14.168 176.955 14.3 176.979 14.42L178.455 19.316L180.111 25.616L181.767 19.316L183.171 14.42C183.219 14.276 183.255 14.132 183.279 13.988C183.303 13.82 183.315 13.676 183.315 13.556C183.315 13.052 183.147 12.68 182.811 12.44C182.475 12.176 182.019 12.044 181.443 12.044C181.443 11.66 181.491 11.276 181.587 10.892C181.683 10.484 181.863 10.148 182.127 9.884H189.111C189.375 10.148 189.555 10.484 189.651 10.892C189.771 11.276 189.831 11.66 189.831 12.044C189.207 12.044 188.739 12.2 188.427 12.512C188.139 12.8 187.887 13.268 187.671 13.916L183.927 25.4C183.543 26.72 183.099 27.692 182.595 28.316C182.115 28.94 181.335 29.252 180.255 29.252H176.511Z"
    fill="#BA5C12" />
  <path
    d="M162.441 29.324C159.753 29.324 157.605 28.472 155.997 26.768C154.413 25.064 153.621 22.688 153.621 19.64C153.621 17.552 154.017 15.752 154.809 14.24C155.601 12.704 156.669 11.528 158.013 10.712C159.381 9.896 160.929 9.488 162.657 9.488C164.817 9.488 166.545 10.124 167.841 11.396C169.161 12.644 169.821 14.408 169.821 16.688C169.821 17.6 169.665 18.404 169.353 19.1C169.065 19.772 168.453 20.108 167.517 20.108H159.741C159.813 22.004 160.245 23.348 161.037 24.14C161.853 24.932 162.909 25.328 164.205 25.328C165.021 25.328 165.777 25.208 166.473 24.968C167.169 24.704 167.817 24.344 168.417 23.888C168.633 24.08 168.801 24.38 168.921 24.788C169.065 25.172 169.137 25.496 169.137 25.76C169.137 26.144 168.861 26.624 168.309 27.2C167.781 27.752 167.013 28.244 166.005 28.676C165.021 29.108 163.833 29.324 162.441 29.324ZM159.741 17.372H163.377C163.785 17.372 164.037 17.216 164.133 16.904C164.253 16.592 164.313 16.208 164.313 15.752C164.313 14.216 164.121 13.208 163.737 12.728C163.377 12.224 162.945 11.972 162.441 11.972C162.033 11.972 161.625 12.128 161.217 12.44C160.809 12.752 160.473 13.304 160.209 14.096C159.945 14.864 159.789 15.956 159.741 17.372Z"
    fill="#BA5C12" />
  <path
    d="M141.586 29.468C140.29 29.468 139.066 29.144 137.914 28.496C136.786 27.824 135.874 26.816 135.178 25.472C134.482 24.128 134.134 22.436 134.134 20.396C134.134 17.972 134.578 15.956 135.466 14.348C136.378 12.74 137.554 11.54 138.994 10.748C140.458 9.956 142.018 9.56 143.674 9.56C143.986 9.56 144.334 9.572 144.718 9.596C145.102 9.62 145.486 9.656 145.87 9.704L145.762 7.544V5.744C145.762 5.192 145.606 4.76 145.294 4.448C144.982 4.136 144.334 3.98 143.35 3.98V2.504C143.95 2.168 144.658 1.868 145.474 1.604C146.29 1.34 147.094 1.136 147.886 0.991997C148.678 0.823997 149.314 0.739998 149.794 0.739998C150.346 0.739998 150.742 0.871998 150.982 1.136C151.246 1.376 151.378 1.796 151.378 2.396V25.004C151.378 26.18 151.954 26.876 153.106 27.092L153.142 28.1C152.806 28.556 152.29 28.892 151.594 29.108C150.898 29.348 150.19 29.468 149.47 29.468C148.846 29.468 148.186 29.324 147.49 29.036C146.794 28.772 146.302 28.352 146.014 27.776C145.51 28.448 144.886 28.892 144.142 29.108C143.422 29.348 142.57 29.468 141.586 29.468ZM144.07 26.408C144.814 26.408 145.378 26.192 145.762 25.76V13.16C145.258 12.464 144.586 12.116 143.746 12.116C143.098 12.116 142.51 12.344 141.982 12.8C141.454 13.232 141.034 13.964 140.722 14.996C140.41 16.004 140.254 17.384 140.254 19.136C140.254 21.608 140.614 23.444 141.334 24.644C142.078 25.82 142.99 26.408 144.07 26.408Z"
    fill="#BA5C12" />
  <path
    d="M130.484 29.468C129.38 29.468 128.492 29.144 127.82 28.496C127.148 27.824 126.812 26.96 126.812 25.904C126.812 24.824 127.148 23.96 127.82 23.312C128.492 22.664 129.38 22.34 130.484 22.34C131.564 22.34 132.44 22.664 133.112 23.312C133.784 23.96 134.12 24.824 134.12 25.904C134.12 26.96 133.784 27.824 133.112 28.496C132.44 29.144 131.564 29.468 130.484 29.468Z"
    fill="#BA5C12" />
  <path
    d="M117.528 23.096C116.736 23.096 115.98 23.012 115.26 22.844V22.952C115.26 23.552 115.488 23.972 115.944 24.212C116.424 24.452 117.252 24.62 118.428 24.716C121.476 24.932 123.768 25.484 125.304 26.372C126.864 27.26 127.644 28.592 127.644 30.368C127.644 31.304 127.38 32.18 126.852 32.996C126.324 33.812 125.592 34.52 124.656 35.12C123.744 35.72 122.7 36.188 121.524 36.524C120.348 36.86 119.124 37.028 117.852 37.028C114.876 37.028 112.704 36.488 111.336 35.408C109.992 34.352 109.32 33.02 109.32 31.412C109.32 30.524 109.608 29.72 110.184 29C110.784 28.28 111.636 27.728 112.74 27.344C112.212 26.96 111.876 26.528 111.732 26.048C111.612 25.568 111.552 25.04 111.552 24.464C111.552 24.08 111.708 23.66 112.02 23.204C112.332 22.748 112.812 22.4 113.46 22.16C112.332 21.56 111.444 20.732 110.796 19.676C110.172 18.62 109.86 17.48 109.86 16.256C109.86 15.032 110.16 13.928 110.76 12.944C111.36 11.936 112.248 11.132 113.424 10.532C114.6 9.932 116.064 9.632 117.816 9.632H117.852C118.068 9.632 118.392 9.644 118.824 9.668C119.28 9.692 119.7 9.74 120.084 9.812C121.74 9.812 123 9.8 123.864 9.776C124.752 9.728 125.424 9.68 125.88 9.632C126.336 9.584 126.78 9.524 127.212 9.452C127.476 9.452 127.668 9.632 127.788 9.992C127.908 10.328 127.968 10.652 127.968 10.964C127.968 11.42 127.86 11.804 127.644 12.116C127.428 12.428 127.068 12.584 126.564 12.584C126.348 12.584 125.952 12.464 125.376 12.224C124.8 11.984 124.248 11.768 123.72 11.576C124.536 12.224 125.148 12.968 125.556 13.808C125.988 14.648 126.204 15.44 126.204 16.184C126.204 18.44 125.436 20.156 123.9 21.332C122.364 22.508 120.24 23.096 117.528 23.096ZM118.14 20.72C118.932 20.72 119.484 20.3 119.796 19.46C120.132 18.62 120.3 17.384 120.3 15.752C120.3 14.408 120.108 13.448 119.724 12.872C119.364 12.296 118.836 12.008 118.14 12.008C117.348 12.008 116.796 12.428 116.484 13.268C116.172 14.084 116.016 15.212 116.016 16.652C116.016 17.972 116.184 18.98 116.52 19.676C116.856 20.372 117.396 20.72 118.14 20.72ZM114.756 30.476C114.756 31.484 115.068 32.336 115.692 33.032C116.316 33.728 117.432 34.076 119.04 34.076C120.24 34.076 121.08 33.788 121.56 33.212C122.04 32.636 122.28 32 122.28 31.304C122.28 30.752 122.028 30.32 121.524 30.008C121.044 29.696 120.396 29.444 119.58 29.252C118.764 29.06 117.852 28.88 116.844 28.712C116.244 28.616 115.704 28.508 115.224 28.388C115.056 28.7 114.936 29.036 114.864 29.396C114.792 29.78 114.756 30.14 114.756 30.476Z"
    fill="#BA5C12" />
  <path
    d="M99.8214 29.468C98.1174 29.468 96.6054 29.108 95.2854 28.388C93.9654 27.644 92.9334 26.564 92.1894 25.148C91.4694 23.708 91.1094 21.932 91.1094 19.82C91.1094 17.564 91.4934 15.668 92.2614 14.132C93.0294 12.596 94.0974 11.432 95.4654 10.64C96.8334 9.848 98.4054 9.452 100.181 9.452C101.909 9.452 103.421 9.824 104.717 10.568C106.037 11.312 107.057 12.416 107.777 13.88C108.521 15.32 108.893 17.108 108.893 19.244C108.893 21.476 108.509 23.36 107.741 24.896C106.973 26.408 105.905 27.548 104.537 28.316C103.169 29.084 101.597 29.468 99.8214 29.468ZM100.109 26.876C100.613 26.876 101.045 26.696 101.405 26.336C101.789 25.976 102.077 25.316 102.269 24.356C102.485 23.372 102.593 21.956 102.593 20.108C102.593 17.852 102.485 16.148 102.269 14.996C102.053 13.82 101.741 13.028 101.333 12.62C100.925 12.212 100.445 12.008 99.8934 12.008C99.3894 12.008 98.9454 12.188 98.5614 12.548C98.1774 12.908 97.8774 13.58 97.6614 14.564C97.4694 15.548 97.3734 16.976 97.3734 18.848C97.3734 21.08 97.4814 22.772 97.6974 23.924C97.9374 25.076 98.2614 25.856 98.6694 26.264C99.0774 26.672 99.5574 26.876 100.109 26.876Z"
    fill="#BA5C12" />
  <path
    d="M72.4845 35.84C72.2205 35.576 72.0045 35.288 71.8365 34.976C71.6925 34.664 71.6205 34.316 71.6205 33.932C72.3405 33.932 72.7965 33.776 72.9885 33.464C73.2045 33.152 73.3125 32.648 73.3125 31.952V14.708C73.3125 14.084 73.1325 13.628 72.7725 13.34C72.4365 13.052 71.8125 12.908 70.9005 12.908V11.288C71.4285 10.976 72.0525 10.688 72.7725 10.424C73.5165 10.16 74.2365 9.956 74.9325 9.812C75.6285 9.644 76.1805 9.56 76.5885 9.56C77.0685 9.56 77.4645 9.656 77.7765 9.848C78.1125 10.04 78.3525 10.424 78.4965 11C79.0485 10.472 79.6965 10.1 80.4405 9.884C81.2085 9.668 82.0125 9.56 82.8525 9.56C84.1245 9.56 85.3125 9.896 86.4165 10.568C87.5205 11.216 88.4085 12.2 89.0805 13.52C89.7765 14.84 90.1245 16.52 90.1245 18.56C90.1245 20.84 89.6805 22.796 88.7925 24.428C87.9285 26.036 86.7525 27.272 85.2645 28.136C83.8005 28.976 82.1685 29.396 80.3685 29.396C80.1765 29.396 79.9605 29.384 79.7205 29.36C79.4805 29.36 79.2285 29.348 78.9645 29.324V31.952C78.9645 32.648 79.2165 33.152 79.7205 33.464C80.2245 33.776 80.7405 33.932 81.2685 33.932C81.2685 34.652 80.9925 35.288 80.4405 35.84H72.4845ZM80.3325 26.768C81.3165 26.768 82.1565 26.192 82.8525 25.04C83.5485 23.888 83.8965 22.016 83.8965 19.424C83.8965 17.768 83.7165 16.46 83.3565 15.5C83.0205 14.516 82.5525 13.82 81.9525 13.412C81.3525 12.98 80.6925 12.764 79.9725 12.764C79.5885 12.764 79.2525 12.836 78.9645 12.98V26.408C79.3725 26.648 79.8285 26.768 80.3325 26.768Z"
    fill="#BA5C12" />
  <path
    d="M66.8192 29.216C65.9312 29.216 65.1632 29.096 64.5152 28.856C63.8912 28.592 63.5792 28.088 63.5792 27.344V15.356C63.5792 14.588 63.3632 14 62.9312 13.592C62.5232 13.16 61.9712 12.944 61.2752 12.944C60.8912 12.944 60.4952 13.016 60.0872 13.16C59.7032 13.304 59.3552 13.52 59.0432 13.808C59.0672 13.904 59.0792 14 59.0792 14.096C59.0792 14.168 59.0792 14.252 59.0792 14.348V25.112C59.0792 25.808 59.2232 26.312 59.5112 26.624C59.7992 26.912 60.2552 27.056 60.8792 27.056C60.8792 27.44 60.7952 27.8 60.6272 28.136C60.4832 28.448 60.2792 28.736 60.0152 29H52.3472C52.1072 28.736 51.9032 28.448 51.7352 28.136C51.5912 27.8 51.5192 27.44 51.5192 27.056C52.1432 27.056 52.5752 26.912 52.8152 26.624C53.0792 26.312 53.2112 25.808 53.2112 25.112V15.356C53.2112 14.588 52.9832 14 52.5272 13.592C52.0952 13.16 51.5672 12.944 50.9432 12.944C50.4872 12.944 50.0192 13.052 49.5392 13.268C49.0592 13.484 48.6512 13.796 48.3152 14.204V25.112C48.3152 25.808 48.4352 26.312 48.6752 26.624C48.9392 26.912 49.3712 27.056 49.9712 27.056C49.9712 27.8 49.6832 28.448 49.1072 29H41.2952C41.0312 28.736 40.8152 28.448 40.6472 28.136C40.5032 27.8 40.4312 27.44 40.4312 27.056C41.1512 27.056 41.6672 26.912 41.9792 26.624C42.2912 26.312 42.4472 25.808 42.4472 25.112V14.564C42.4472 13.94 42.2672 13.484 41.9072 13.196C41.5712 12.908 40.9472 12.764 40.0352 12.764V11.18C40.5872 10.844 41.2832 10.544 42.1232 10.28C42.9872 10.016 43.8152 9.812 44.6072 9.668C45.4232 9.5 46.0472 9.416 46.4792 9.416C46.9592 9.416 47.3552 9.572 47.6672 9.884C48.0032 10.172 48.2192 10.784 48.3152 11.72C48.9392 11.024 49.7192 10.472 50.6552 10.064C51.6152 9.632 52.6952 9.416 53.8952 9.416C56.2952 9.416 57.8552 10.22 58.5752 11.828C59.1992 11.06 60.0032 10.472 60.9872 10.064C61.9952 9.632 63.1112 9.416 64.3352 9.416C66.0632 9.416 67.3472 9.836 68.1872 10.676C69.0512 11.516 69.4832 12.74 69.4832 14.348V25.112C69.4832 25.664 69.6392 26.084 69.9512 26.372C70.2632 26.66 70.6952 26.864 71.2472 26.984V28.028C70.8152 28.412 70.2512 28.712 69.5552 28.928C68.8592 29.12 67.9472 29.216 66.8192 29.216Z"
    fill="#BA5C12" />
  <path
    d="M20.4377 29C20.1737 28.736 19.9577 28.448 19.7897 28.136C19.6457 27.824 19.5737 27.476 19.5737 27.092C20.2937 27.092 20.8097 26.936 21.1217 26.624C21.4337 26.312 21.5897 25.808 21.5897 25.112V14.6C21.5897 13.976 21.4097 13.52 21.0497 13.232C20.7137 12.944 20.0897 12.8 19.1777 12.8V11.18C19.7297 10.868 20.4257 10.58 21.2657 10.316C22.1297 10.052 22.9577 9.848 23.7497 9.704C24.5657 9.536 25.1897 9.452 25.6217 9.452C26.1257 9.452 26.5337 9.608 26.8457 9.92C27.1817 10.232 27.3737 10.904 27.4217 11.936C28.0217 11.192 28.7777 10.592 29.6897 10.136C30.6257 9.68 31.7057 9.452 32.9297 9.452C34.6097 9.452 35.8697 9.884 36.7097 10.748C37.5737 11.588 38.0057 13.028 38.0057 15.068V24.896C38.0057 26.072 38.5817 26.768 39.7337 26.984L39.7697 28.028C39.5297 28.268 39.1457 28.484 38.6177 28.676C38.0897 28.844 37.5137 28.976 36.8897 29.072C36.2897 29.168 35.7257 29.216 35.1977 29.216C34.1657 29.216 33.3977 29.024 32.8937 28.64C32.4137 28.256 32.1737 27.644 32.1737 26.804V15.572C32.1737 14.588 31.9577 13.904 31.5257 13.52C31.0937 13.136 30.5657 12.944 29.9417 12.944C28.9577 12.944 28.1297 13.34 27.4577 14.132V25.112C27.4577 25.808 27.6017 26.312 27.8897 26.624C28.2017 26.936 28.7177 27.092 29.4377 27.092C29.4377 27.812 29.1617 28.448 28.6097 29H20.4377Z"
    fill="#BA5C12" />
  <path
    d="M7.0418 29.252C5.2418 29.252 3.7778 28.76 2.6498 27.776C1.5458 26.768 0.993797 25.484 0.993797 23.924C0.993797 22.364 1.4978 21.104 2.5058 20.144C3.5378 19.184 5.1218 18.704 7.2578 18.704C7.9538 18.704 8.6858 18.776 9.4538 18.92C10.2218 19.04 10.8458 19.232 11.3258 19.496V14.708C11.3258 13.7 11.0618 13.004 10.5338 12.62C10.0298 12.212 9.4058 12.008 8.6618 12.008C7.8698 12.008 7.2218 12.2 6.7178 12.584C7.1978 12.752 7.5458 13.016 7.7618 13.376C7.9778 13.712 8.0858 14.084 8.0858 14.492C8.0858 15.284 7.7978 15.92 7.2218 16.4C6.6698 16.856 5.9858 17.084 5.1698 17.084C4.2578 17.084 3.5258 16.82 2.9738 16.292C2.4218 15.74 2.1458 15.056 2.1458 14.24C2.1458 13.424 2.4218 12.656 2.9738 11.936C3.5258 11.192 4.3778 10.58 5.5298 10.1C6.7058 9.62 8.2178 9.38 10.0658 9.38C14.8898 9.38 17.3018 11.288 17.3018 15.104V24.644C17.3018 25.796 17.8538 26.492 18.9578 26.732V27.884C18.6458 28.34 18.1178 28.688 17.3738 28.928C16.6298 29.144 15.9098 29.252 15.2138 29.252C13.5818 29.252 12.4298 28.688 11.7578 27.56C11.2778 27.992 10.6418 28.388 9.8498 28.748C9.0578 29.084 8.1218 29.252 7.0418 29.252ZM9.3818 26.336C9.7178 26.336 10.0658 26.288 10.4258 26.192C10.7858 26.072 11.0858 25.928 11.3258 25.76V22.268C11.0858 22.1 10.7738 21.956 10.3898 21.836C10.0298 21.716 9.6698 21.656 9.3098 21.656C8.6858 21.656 8.1458 21.86 7.6898 22.268C7.2338 22.652 7.0058 23.264 7.0058 24.104C7.0058 24.752 7.2218 25.292 7.6538 25.724C8.0858 26.132 8.6618 26.336 9.3818 26.336Z"
    fill="#BA5C12" />
  <path
    d="M176.511 29.252L170.823 13.916C170.583 13.268 170.331 12.8 170.067 12.512C169.803 12.2 169.359 12.044 168.735 12.044C168.735 11.66 168.795 11.276 168.915 10.892C169.035 10.484 169.227 10.148 169.491 9.884H177.699C177.963 10.148 178.167 10.484 178.311 10.892C178.455 11.276 178.527 11.66 178.527 12.044C178.047 12.044 177.639 12.176 177.303 12.44C176.991 12.704 176.835 13.112 176.835 13.664C176.835 13.76 176.847 13.88 176.871 14.024C176.919 14.168 176.955 14.3 176.979 14.42L178.455 19.316L180.111 25.616L181.767 19.316L183.171 14.42C183.219 14.276 183.255 14.132 183.279 13.988C183.303 13.82 183.315 13.676 183.315 13.556C183.315 13.052 183.147 12.68 182.811 12.44C182.475 12.176 182.019 12.044 181.443 12.044C181.443 11.66 181.491 11.276 181.587 10.892C181.683 10.484 181.863 10.148 182.127 9.884H189.111C189.375 10.148 189.555 10.484 189.651 10.892C189.771 11.276 189.831 11.66 189.831 12.044C189.207 12.044 188.739 12.2 188.427 12.512C188.139 12.8 187.887 13.268 187.671 13.916L183.927 25.4C183.543 26.72 183.099 27.692 182.595 28.316C182.115 28.94 181.335 29.252 180.255 29.252H176.511Z"
    fill="#01200F" />
  <path
    d="M162.441 29.324C159.753 29.324 157.605 28.472 155.997 26.768C154.413 25.064 153.621 22.688 153.621 19.64C153.621 17.552 154.017 15.752 154.809 14.24C155.601 12.704 156.669 11.528 158.013 10.712C159.381 9.896 160.929 9.488 162.657 9.488C164.817 9.488 166.545 10.124 167.841 11.396C169.161 12.644 169.821 14.408 169.821 16.688C169.821 17.6 169.665 18.404 169.353 19.1C169.065 19.772 168.453 20.108 167.517 20.108H159.741C159.813 22.004 160.245 23.348 161.037 24.14C161.853 24.932 162.909 25.328 164.205 25.328C165.021 25.328 165.777 25.208 166.473 24.968C167.169 24.704 167.817 24.344 168.417 23.888C168.633 24.08 168.801 24.38 168.921 24.788C169.065 25.172 169.137 25.496 169.137 25.76C169.137 26.144 168.861 26.624 168.309 27.2C167.781 27.752 167.013 28.244 166.005 28.676C165.021 29.108 163.833 29.324 162.441 29.324ZM159.741 17.372H163.377C163.785 17.372 164.037 17.216 164.133 16.904C164.253 16.592 164.313 16.208 164.313 15.752C164.313 14.216 164.121 13.208 163.737 12.728C163.377 12.224 162.945 11.972 162.441 11.972C162.033 11.972 161.625 12.128 161.217 12.44C160.809 12.752 160.473 13.304 160.209 14.096C159.945 14.864 159.789 15.956 159.741 17.372Z"
    fill="#01200F" />
  <path
    d="M141.586 29.468C140.29 29.468 139.066 29.144 137.914 28.496C136.786 27.824 135.874 26.816 135.178 25.472C134.482 24.128 134.134 22.436 134.134 20.396C134.134 17.972 134.578 15.956 135.466 14.348C136.378 12.74 137.554 11.54 138.994 10.748C140.458 9.956 142.018 9.56 143.674 9.56C143.986 9.56 144.334 9.572 144.718 9.596C145.102 9.62 145.486 9.656 145.87 9.704L145.762 7.544V5.744C145.762 5.192 145.606 4.76 145.294 4.448C144.982 4.136 144.334 3.98 143.35 3.98V2.504C143.95 2.168 144.658 1.868 145.474 1.604C146.29 1.34 147.094 1.136 147.886 0.991997C148.678 0.823997 149.314 0.739998 149.794 0.739998C150.346 0.739998 150.742 0.871998 150.982 1.136C151.246 1.376 151.378 1.796 151.378 2.396V25.004C151.378 26.18 151.954 26.876 153.106 27.092L153.142 28.1C152.806 28.556 152.29 28.892 151.594 29.108C150.898 29.348 150.19 29.468 149.47 29.468C148.846 29.468 148.186 29.324 147.49 29.036C146.794 28.772 146.302 28.352 146.014 27.776C145.51 28.448 144.886 28.892 144.142 29.108C143.422 29.348 142.57 29.468 141.586 29.468ZM144.07 26.408C144.814 26.408 145.378 26.192 145.762 25.76V13.16C145.258 12.464 144.586 12.116 143.746 12.116C143.098 12.116 142.51 12.344 141.982 12.8C141.454 13.232 141.034 13.964 140.722 14.996C140.41 16.004 140.254 17.384 140.254 19.136C140.254 21.608 140.614 23.444 141.334 24.644C142.078 25.82 142.99 26.408 144.07 26.408Z"
    fill="#01200F" />
  <path
    d="M130.484 29.468C129.38 29.468 128.492 29.144 127.82 28.496C127.148 27.824 126.812 26.96 126.812 25.904C126.812 24.824 127.148 23.96 127.82 23.312C128.492 22.664 129.38 22.34 130.484 22.34C131.564 22.34 132.44 22.664 133.112 23.312C133.784 23.96 134.12 24.824 134.12 25.904C134.12 26.96 133.784 27.824 133.112 28.496C132.44 29.144 131.564 29.468 130.484 29.468Z"
    fill="#01200F" />
  <path
    d="M117.528 23.096C116.736 23.096 115.98 23.012 115.26 22.844V22.952C115.26 23.552 115.488 23.972 115.944 24.212C116.424 24.452 117.252 24.62 118.428 24.716C121.476 24.932 123.768 25.484 125.304 26.372C126.864 27.26 127.644 28.592 127.644 30.368C127.644 31.304 127.38 32.18 126.852 32.996C126.324 33.812 125.592 34.52 124.656 35.12C123.744 35.72 122.7 36.188 121.524 36.524C120.348 36.86 119.124 37.028 117.852 37.028C114.876 37.028 112.704 36.488 111.336 35.408C109.992 34.352 109.32 33.02 109.32 31.412C109.32 30.524 109.608 29.72 110.184 29C110.784 28.28 111.636 27.728 112.74 27.344C112.212 26.96 111.876 26.528 111.732 26.048C111.612 25.568 111.552 25.04 111.552 24.464C111.552 24.08 111.708 23.66 112.02 23.204C112.332 22.748 112.812 22.4 113.46 22.16C112.332 21.56 111.444 20.732 110.796 19.676C110.172 18.62 109.86 17.48 109.86 16.256C109.86 15.032 110.16 13.928 110.76 12.944C111.36 11.936 112.248 11.132 113.424 10.532C114.6 9.932 116.064 9.632 117.816 9.632H117.852C118.068 9.632 118.392 9.644 118.824 9.668C119.28 9.692 119.7 9.74 120.084 9.812C121.74 9.812 123 9.8 123.864 9.776C124.752 9.728 125.424 9.68 125.88 9.632C126.336 9.584 126.78 9.524 127.212 9.452C127.476 9.452 127.668 9.632 127.788 9.992C127.908 10.328 127.968 10.652 127.968 10.964C127.968 11.42 127.86 11.804 127.644 12.116C127.428 12.428 127.068 12.584 126.564 12.584C126.348 12.584 125.952 12.464 125.376 12.224C124.8 11.984 124.248 11.768 123.72 11.576C124.536 12.224 125.148 12.968 125.556 13.808C125.988 14.648 126.204 15.44 126.204 16.184C126.204 18.44 125.436 20.156 123.9 21.332C122.364 22.508 120.24 23.096 117.528 23.096ZM118.14 20.72C118.932 20.72 119.484 20.3 119.796 19.46C120.132 18.62 120.3 17.384 120.3 15.752C120.3 14.408 120.108 13.448 119.724 12.872C119.364 12.296 118.836 12.008 118.14 12.008C117.348 12.008 116.796 12.428 116.484 13.268C116.172 14.084 116.016 15.212 116.016 16.652C116.016 17.972 116.184 18.98 116.52 19.676C116.856 20.372 117.396 20.72 118.14 20.72ZM114.756 30.476C114.756 31.484 115.068 32.336 115.692 33.032C116.316 33.728 117.432 34.076 119.04 34.076C120.24 34.076 121.08 33.788 121.56 33.212C122.04 32.636 122.28 32 122.28 31.304C122.28 30.752 122.028 30.32 121.524 30.008C121.044 29.696 120.396 29.444 119.58 29.252C118.764 29.06 117.852 28.88 116.844 28.712C116.244 28.616 115.704 28.508 115.224 28.388C115.056 28.7 114.936 29.036 114.864 29.396C114.792 29.78 114.756 30.14 114.756 30.476Z"
    fill="#01200F" />
  <path
    d="M99.8214 29.468C98.1174 29.468 96.6054 29.108 95.2854 28.388C93.9654 27.644 92.9334 26.564 92.1894 25.148C91.4694 23.708 91.1094 21.932 91.1094 19.82C91.1094 17.564 91.4934 15.668 92.2614 14.132C93.0294 12.596 94.0974 11.432 95.4654 10.64C96.8334 9.848 98.4054 9.452 100.181 9.452C101.909 9.452 103.421 9.824 104.717 10.568C106.037 11.312 107.057 12.416 107.777 13.88C108.521 15.32 108.893 17.108 108.893 19.244C108.893 21.476 108.509 23.36 107.741 24.896C106.973 26.408 105.905 27.548 104.537 28.316C103.169 29.084 101.597 29.468 99.8214 29.468ZM100.109 26.876C100.613 26.876 101.045 26.696 101.405 26.336C101.789 25.976 102.077 25.316 102.269 24.356C102.485 23.372 102.593 21.956 102.593 20.108C102.593 17.852 102.485 16.148 102.269 14.996C102.053 13.82 101.741 13.028 101.333 12.62C100.925 12.212 100.445 12.008 99.8934 12.008C99.3894 12.008 98.9454 12.188 98.5614 12.548C98.1774 12.908 97.8774 13.58 97.6614 14.564C97.4694 15.548 97.3734 16.976 97.3734 18.848C97.3734 21.08 97.4814 22.772 97.6974 23.924C97.9374 25.076 98.2614 25.856 98.6694 26.264C99.0774 26.672 99.5574 26.876 100.109 26.876Z"
    fill="#01200F" />
  <path
    d="M72.4845 35.84C72.2205 35.576 72.0045 35.288 71.8365 34.976C71.6925 34.664 71.6205 34.316 71.6205 33.932C72.3405 33.932 72.7965 33.776 72.9885 33.464C73.2045 33.152 73.3125 32.648 73.3125 31.952V14.708C73.3125 14.084 73.1325 13.628 72.7725 13.34C72.4365 13.052 71.8125 12.908 70.9005 12.908V11.288C71.4285 10.976 72.0525 10.688 72.7725 10.424C73.5165 10.16 74.2365 9.956 74.9325 9.812C75.6285 9.644 76.1805 9.56 76.5885 9.56C77.0685 9.56 77.4645 9.656 77.7765 9.848C78.1125 10.04 78.3525 10.424 78.4965 11C79.0485 10.472 79.6965 10.1 80.4405 9.884C81.2085 9.668 82.0125 9.56 82.8525 9.56C84.1245 9.56 85.3125 9.896 86.4165 10.568C87.5205 11.216 88.4085 12.2 89.0805 13.52C89.7765 14.84 90.1245 16.52 90.1245 18.56C90.1245 20.84 89.6805 22.796 88.7925 24.428C87.9285 26.036 86.7525 27.272 85.2645 28.136C83.8005 28.976 82.1685 29.396 80.3685 29.396C80.1765 29.396 79.9605 29.384 79.7205 29.36C79.4805 29.36 79.2285 29.348 78.9645 29.324V31.952C78.9645 32.648 79.2165 33.152 79.7205 33.464C80.2245 33.776 80.7405 33.932 81.2685 33.932C81.2685 34.652 80.9925 35.288 80.4405 35.84H72.4845ZM80.3325 26.768C81.3165 26.768 82.1565 26.192 82.8525 25.04C83.5485 23.888 83.8965 22.016 83.8965 19.424C83.8965 17.768 83.7165 16.46 83.3565 15.5C83.0205 14.516 82.5525 13.82 81.9525 13.412C81.3525 12.98 80.6925 12.764 79.9725 12.764C79.5885 12.764 79.2525 12.836 78.9645 12.98V26.408C79.3725 26.648 79.8285 26.768 80.3325 26.768Z"
    fill="#01200F" />
  <path
    d="M66.8192 29.216C65.9312 29.216 65.1632 29.096 64.5152 28.856C63.8912 28.592 63.5792 28.088 63.5792 27.344V15.356C63.5792 14.588 63.3632 14 62.9312 13.592C62.5232 13.16 61.9712 12.944 61.2752 12.944C60.8912 12.944 60.4952 13.016 60.0872 13.16C59.7032 13.304 59.3552 13.52 59.0432 13.808C59.0672 13.904 59.0792 14 59.0792 14.096C59.0792 14.168 59.0792 14.252 59.0792 14.348V25.112C59.0792 25.808 59.2232 26.312 59.5112 26.624C59.7992 26.912 60.2552 27.056 60.8792 27.056C60.8792 27.44 60.7952 27.8 60.6272 28.136C60.4832 28.448 60.2792 28.736 60.0152 29H52.3472C52.1072 28.736 51.9032 28.448 51.7352 28.136C51.5912 27.8 51.5192 27.44 51.5192 27.056C52.1432 27.056 52.5752 26.912 52.8152 26.624C53.0792 26.312 53.2112 25.808 53.2112 25.112V15.356C53.2112 14.588 52.9832 14 52.5272 13.592C52.0952 13.16 51.5672 12.944 50.9432 12.944C50.4872 12.944 50.0192 13.052 49.5392 13.268C49.0592 13.484 48.6512 13.796 48.3152 14.204V25.112C48.3152 25.808 48.4352 26.312 48.6752 26.624C48.9392 26.912 49.3712 27.056 49.9712 27.056C49.9712 27.8 49.6832 28.448 49.1072 29H41.2952C41.0312 28.736 40.8152 28.448 40.6472 28.136C40.5032 27.8 40.4312 27.44 40.4312 27.056C41.1512 27.056 41.6672 26.912 41.9792 26.624C42.2912 26.312 42.4472 25.808 42.4472 25.112V14.564C42.4472 13.94 42.2672 13.484 41.9072 13.196C41.5712 12.908 40.9472 12.764 40.0352 12.764V11.18C40.5872 10.844 41.2832 10.544 42.1232 10.28C42.9872 10.016 43.8152 9.812 44.6072 9.668C45.4232 9.5 46.0472 9.416 46.4792 9.416C46.9592 9.416 47.3552 9.572 47.6672 9.884C48.0032 10.172 48.2192 10.784 48.3152 11.72C48.9392 11.024 49.7192 10.472 50.6552 10.064C51.6152 9.632 52.6952 9.416 53.8952 9.416C56.2952 9.416 57.8552 10.22 58.5752 11.828C59.1992 11.06 60.0032 10.472 60.9872 10.064C61.9952 9.632 63.1112 9.416 64.3352 9.416C66.0632 9.416 67.3472 9.836 68.1872 10.676C69.0512 11.516 69.4832 12.74 69.4832 14.348V25.112C69.4832 25.664 69.6392 26.084 69.9512 26.372C70.2632 26.66 70.6952 26.864 71.2472 26.984V28.028C70.8152 28.412 70.2512 28.712 69.5552 28.928C68.8592 29.12 67.9472 29.216 66.8192 29.216Z"
    fill="#01200F" />
  <path
    d="M20.4377 29C20.1737 28.736 19.9577 28.448 19.7897 28.136C19.6457 27.824 19.5737 27.476 19.5737 27.092C20.2937 27.092 20.8097 26.936 21.1217 26.624C21.4337 26.312 21.5897 25.808 21.5897 25.112V14.6C21.5897 13.976 21.4097 13.52 21.0497 13.232C20.7137 12.944 20.0897 12.8 19.1777 12.8V11.18C19.7297 10.868 20.4257 10.58 21.2657 10.316C22.1297 10.052 22.9577 9.848 23.7497 9.704C24.5657 9.536 25.1897 9.452 25.6217 9.452C26.1257 9.452 26.5337 9.608 26.8457 9.92C27.1817 10.232 27.3737 10.904 27.4217 11.936C28.0217 11.192 28.7777 10.592 29.6897 10.136C30.6257 9.68 31.7057 9.452 32.9297 9.452C34.6097 9.452 35.8697 9.884 36.7097 10.748C37.5737 11.588 38.0057 13.028 38.0057 15.068V24.896C38.0057 26.072 38.5817 26.768 39.7337 26.984L39.7697 28.028C39.5297 28.268 39.1457 28.484 38.6177 28.676C38.0897 28.844 37.5137 28.976 36.8897 29.072C36.2897 29.168 35.7257 29.216 35.1977 29.216C34.1657 29.216 33.3977 29.024 32.8937 28.64C32.4137 28.256 32.1737 27.644 32.1737 26.804V15.572C32.1737 14.588 31.9577 13.904 31.5257 13.52C31.0937 13.136 30.5657 12.944 29.9417 12.944C28.9577 12.944 28.1297 13.34 27.4577 14.132V25.112C27.4577 25.808 27.6017 26.312 27.8897 26.624C28.2017 26.936 28.7177 27.092 29.4377 27.092C29.4377 27.812 29.1617 28.448 28.6097 29H20.4377Z"
    fill="#01200F" />
  <path
    d="M7.0418 29.252C5.2418 29.252 3.7778 28.76 2.6498 27.776C1.5458 26.768 0.993797 25.484 0.993797 23.924C0.993797 22.364 1.4978 21.104 2.5058 20.144C3.5378 19.184 5.1218 18.704 7.2578 18.704C7.9538 18.704 8.6858 18.776 9.4538 18.92C10.2218 19.04 10.8458 19.232 11.3258 19.496V14.708C11.3258 13.7 11.0618 13.004 10.5338 12.62C10.0298 12.212 9.4058 12.008 8.6618 12.008C7.8698 12.008 7.2218 12.2 6.7178 12.584C7.1978 12.752 7.5458 13.016 7.7618 13.376C7.9778 13.712 8.0858 14.084 8.0858 14.492C8.0858 15.284 7.7978 15.92 7.2218 16.4C6.6698 16.856 5.9858 17.084 5.1698 17.084C4.2578 17.084 3.5258 16.82 2.9738 16.292C2.4218 15.74 2.1458 15.056 2.1458 14.24C2.1458 13.424 2.4218 12.656 2.9738 11.936C3.5258 11.192 4.3778 10.58 5.5298 10.1C6.7058 9.62 8.2178 9.38 10.0658 9.38C14.8898 9.38 17.3018 11.288 17.3018 15.104V24.644C17.3018 25.796 17.8538 26.492 18.9578 26.732V27.884C18.6458 28.34 18.1178 28.688 17.3738 28.928C16.6298 29.144 15.9098 29.252 15.2138 29.252C13.5818 29.252 12.4298 28.688 11.7578 27.56C11.2778 27.992 10.6418 28.388 9.8498 28.748C9.0578 29.084 8.1218 29.252 7.0418 29.252ZM9.3818 26.336C9.7178 26.336 10.0658 26.288 10.4258 26.192C10.7858 26.072 11.0858 25.928 11.3258 25.76V22.268C11.0858 22.1 10.7738 21.956 10.3898 21.836C10.0298 21.716 9.6698 21.656 9.3098 21.656C8.6858 21.656 8.1458 21.86 7.6898 22.268C7.2338 22.652 7.0058 23.264 7.0058 24.104C7.0058 24.752 7.2218 25.292 7.6538 25.724C8.0858 26.132 8.6618 26.336 9.3818 26.336Z"
    fill="#01200F" />
</svg>